<svg xmlns="http://www.w3.org/2000/svg" width="32" height="24" fill="none" viewBox="0 0 32 24">
  <path fill="#67A160" d="M18.823 5.787 8.715.205l.22 11.545 9.888-5.963Zm-6.401 11.635c-6.263.61-9.301-1.871-9.755-4.086-.229-1.116.111-2.393 1.254-3.57C5.074 8.578 7.05 7.5 10.01 6.941l-.372-1.965c-3.237.611-5.634 1.833-7.152 3.397C.956 9.948.326 11.875.708 13.738c.767 3.744 5.272 6.322 11.908 5.675l-.194-1.99Z"/>
  <path fill="#3A4F3C" d="m13.713 17.384 10.05 5.688-.1-11.547-9.95 5.859Zm6.4-9.709c2.873-.2 5.053.224 6.541.932 1.494.712 2.227 1.669 2.422 2.541.19.847-.074 1.85-1.084 2.815-1.024.979-2.795 1.883-5.456 2.36l.352 1.968c2.913-.521 5.092-1.55 6.486-2.882 1.408-1.346 2.027-3.032 1.654-4.698-.367-1.64-1.641-3.018-3.514-3.91-1.877-.893-4.42-1.339-7.54-1.12l.14 1.994Z"/>
</svg>
